# xmcd
#
# Track frame offsets:
# 150
# 24435
# 52121
# 72037
# 94159
# 108703
# 133646
# 155360
# 173113
# 187032
# 208298
# 227859
#
# Disc length: 3260 seconds
#
# Revision: 1
# Processed by: cddbd v1.4PL0 Copyright (c) Steve Scherf et al.
# Submitted via: CedeCatalogueitor 2.5 http://usuarios.lycos.es/kakasboy
#
DISCID=ac0cba0c
DTITLE=Roy Gaines - New Frontier Lover
DYEAR=2000
DGENRE=
TTITLE0=New Frontier Lover
TTITLE1=The World's Biggest Fool
TTITLE2=What's the Reason
TTITLE3=You Can't Me Nobody Love You
TTITLE4=Catch That Midnight Train
TTITLE5=W.C. Handy The Blues
TTITLE6=Texas Millonaire
TTITLE7=Double Dealin' Woman
TTITLE8=Roy's Theme
TTITLE9=My Woman, My Blacksnake And Me
TTITLE10=Hind Ends and Elbows
TTITLE11=Roll Your Own Biscuit
EXTD=
EXTT0=
EXTT1=
EXTT2=
EXTT3=
EXTT4=
EXTT5=
EXTT6=
EXTT7=
EXTT8=
EXTT9=
EXTT10=
EXTT11=
PLAYORDER=
